<?xml version="1.0" encoding="utf-8"?>
<!-- Generator: Adobe Illustrator 16.0.4, SVG Export Plug-In . SVG Version: 6.00 Build 0)  -->
<!DOCTYPE svg PUBLIC "-//W3C//DTD SVG 1.1//EN" "http://www.w3.org/Graphics/SVG/1.1/DTD/svg11.dtd" [
	<!ENTITY ns_extend "http://ns.adobe.com/Extensibility/1.0/">
	<!ENTITY ns_ai "http://ns.adobe.com/AdobeIllustrator/10.0/">
	<!ENTITY ns_graphs "http://ns.adobe.com/Graphs/1.0/">
	<!ENTITY ns_vars "http://ns.adobe.com/Variables/1.0/">
	<!ENTITY ns_imrep "http://ns.adobe.com/ImageReplacement/1.0/">
	<!ENTITY ns_sfw "http://ns.adobe.com/SaveForWeb/1.0/">
	<!ENTITY ns_custom "http://ns.adobe.com/GenericCustomNamespace/1.0/">
	<!ENTITY ns_adobe_xpath "http://ns.adobe.com/XPath/1.0/">
]>
<svg version="1.1" id="Layer_1" xmlns:x="&ns_extend;" xmlns:i="&ns_ai;" xmlns:graph="&ns_graphs;"
	 xmlns="http://www.w3.org/2000/svg" xmlns:xlink="http://www.w3.org/1999/xlink" x="0px" y="0px" width="75px" height="45px"
	 viewBox="37.733 8.781 75 45" enable-background="new 37.733 8.781 75 45" xml:space="preserve">
<metadata>
	<sfw  xmlns="&ns_sfw;">
		<slices></slices>
		<sliceSourceBounds  x="609.073" y="387.513" bottomLeftOrigin="true" height="25.973" width="61"></sliceSourceBounds>
	</sfw>
</metadata>
<g id="Layer_1_1_">
</g>
<g id="_x2014_ÎÓÈ_1">
	<g>
		<path fill="none" stroke="#A5A5A5" stroke-miterlimit="10" d="M95.75,32.382c-3.144,0-5.693,2.55-5.693,5.693
			s2.55,5.693,5.693,5.693s5.692-2.55,5.692-5.693C101.442,34.93,98.894,32.382,95.75,32.382z M95.75,42.294
			c-2.33,0-4.219-1.89-4.219-4.219s1.889-4.219,4.219-4.219c2.329,0,4.218,1.89,4.218,4.219
			C99.969,40.403,98.079,42.294,95.75,42.294z"/>
		<path fill="none" stroke="#A5A5A5" stroke-miterlimit="10" d="M58.888,32.278c-3.144,0-5.693,2.549-5.693,5.692
			s2.549,5.693,5.693,5.693c3.143,0,5.693-2.55,5.693-5.693S62.031,32.278,58.888,32.278z M58.888,42.189
			c-2.33,0-4.219-1.89-4.219-4.219s1.889-4.218,4.219-4.218c2.329,0,4.218,1.889,4.218,4.218S61.217,42.189,58.888,42.189z"/>
		<path fill="none" stroke="#A5A5A5" stroke-miterlimit="10" d="M105.216,34.648c-0.053-0.334-0.346-0.886-0.42-1.19
			c-0.396-1.647-0.856-3.834-1.636-4.167c-2.704-1.04-7.295-1.894-11.873-2.353c-1.341-0.186-1.721-0.333-2.171-0.67
			c-0.092-0.074-3.833-3.487-6.031-4.631c-1.817-0.946-3.19-1.118-4.756-1.249c-0.151-0.012-1.214-1.081-1.508-1.115
			c-0.215-0.024-3.863-0.275-4.123-0.283c-6.159-0.184-12.688-0.354-18.843,0.064c-0.507,0.034-1.253,1.321-1.396,1.364
			c-1.432,0.434-2.574,3.655-3.89,6.146c-0.034,0.18-0.07,0.369-0.07,0.565v-1.623c0-0.399-0.392-0.854-0.792-0.854h-1.735
			c-0.399,0-0.667,0.455-0.667,0.854v7.536c0,0.398,0.268,0.79,0.667,0.79h0.868c-0.002,0.799,0.07,1.52,0.18,2.27
			c0.191,1.304,0.012,1.689,1.246,2.088c1.225,0.396,0.37,0.16,2.454,0.646c1.385,0.191,2.113,0.308,2.113-1.762
			c0-2.32,0.114-5.765,6.029-5.858c5.914-0.094,6.071,3.944,6.071,5.914c0,1.035-0.249,2.511,0.917,2.533
			c6.66-0.13,12.183-0.104,23.054,0.092c0.278-0.87,0.427-0.482,0.583-2.73c0.155-2.248,0.962-5.309,6.22-5.373
			c5.258-0.064,5.957,2.797,6.146,4.696s-0.135,2.121-0.152,2.967c0.623-0.015,1.812-0.158,2.454-0.523
			C105.185,37.463,105.479,36.327,105.216,34.648z M76.062,19.553c0.312,0.228,0.478,0.439,0.587,0.691
			c-3.279-0.208-6.594-0.315-10.187-0.329v-0.668C69.655,19.286,73.005,19.388,76.062,19.553z M54.259,19.387
			c3.805-0.129,7.414-0.176,11.006-0.153v0.678c-3.593,0.01-7.396,0.118-11.266,0.332C54.078,19.972,54.164,19.69,54.259,19.387z
			 M61.537,26.503c-2.357-0.104-6.748-0.141-9.659-0.244c0.849-1.56,1.044-3.855,2.205-5.016c3.639-0.277,7.675-0.166,8.663-0.184
			C62.319,22.762,61.935,25.429,61.537,26.503z M63.25,26.51c0.644-1.65,0.966-5.417,1.305-5.419
			c2.407-0.017,6.229,0.047,9.611,0.211c0.271,1.924,0.183,4.072,0.367,5.66C70.993,26.837,67.806,26.777,63.25,26.51z
			 M75.979,27.015c-0.215-1.665-0.266-3.803-0.734-5.657c2.168,0.123,4.054,0.29,5.112,0.507c2.205,0.468,3.885,2.479,7.576,5.935
			C82.766,27.345,79.154,27.142,75.979,27.015z"/>
	</g>
</g>
</svg>
