<?xml version="1.0" encoding="utf-8"?>
<!-- Generator: Adobe Illustrator 16.0.4, SVG Export Plug-In . SVG Version: 6.00 Build 0)  -->
<!DOCTYPE svg PUBLIC "-//W3C//DTD SVG 1.1//EN" "http://www.w3.org/Graphics/SVG/1.1/DTD/svg11.dtd" [
	<!ENTITY ns_extend "http://ns.adobe.com/Extensibility/1.0/">
	<!ENTITY ns_ai "http://ns.adobe.com/AdobeIllustrator/10.0/">
	<!ENTITY ns_graphs "http://ns.adobe.com/Graphs/1.0/">
	<!ENTITY ns_vars "http://ns.adobe.com/Variables/1.0/">
	<!ENTITY ns_imrep "http://ns.adobe.com/ImageReplacement/1.0/">
	<!ENTITY ns_sfw "http://ns.adobe.com/SaveForWeb/1.0/">
	<!ENTITY ns_custom "http://ns.adobe.com/GenericCustomNamespace/1.0/">
	<!ENTITY ns_adobe_xpath "http://ns.adobe.com/XPath/1.0/">
]>
<svg version="1.1" id="Layer_1" xmlns:x="&ns_extend;" xmlns:i="&ns_ai;" xmlns:graph="&ns_graphs;"
	 xmlns="http://www.w3.org/2000/svg" xmlns:xlink="http://www.w3.org/1999/xlink" x="0px" y="0px" width="50px" height="50px"
	 viewBox="14.656 13.854 50 50" enable-background="new 14.656 13.854 50 50" xml:space="preserve">
<metadata>
	<sfw  xmlns="&ns_sfw;">
		<slices></slices>
		<sliceSourceBounds  y="-33.354" x="14.156" height="50" width="50" bottomLeftOrigin="true"></sliceSourceBounds>
	</sfw>
</metadata>
<circle fill="#00C3FF" cx="39.656" cy="38.854" r="25"/>
<g>
	<path fill="#FFFFFF" d="M26.74,39.281h24.438l-9.22,8.727c-0.301,0.285-0.314,0.76-0.029,1.061s0.76,0.314,1.061,0.029l9.804-9.279
		c0.343-0.324,0.534-0.775,0.528-1.237c-0.007-0.462-0.212-0.906-0.562-1.221l-9.785-8.763c-0.143-0.129-0.322-0.191-0.5-0.191
		c-0.206,0-0.411,0.084-0.559,0.25c-0.277,0.309-0.251,0.781,0.058,1.059l9.008,8.066H26.74c-0.414,0-0.75,0.336-0.75,0.75
		S26.326,39.281,26.74,39.281z"/>
</g>
</svg>
