<?xml version="1.0" encoding="utf-8"?>
<!-- Generator: Adobe Illustrator 16.0.4, SVG Export Plug-In . SVG Version: 6.00 Build 0)  -->
<!DOCTYPE svg PUBLIC "-//W3C//DTD SVG 1.1//EN" "http://www.w3.org/Graphics/SVG/1.1/DTD/svg11.dtd" [
	<!ENTITY ns_extend "http://ns.adobe.com/Extensibility/1.0/">
	<!ENTITY ns_ai "http://ns.adobe.com/AdobeIllustrator/10.0/">
	<!ENTITY ns_graphs "http://ns.adobe.com/Graphs/1.0/">
	<!ENTITY ns_vars "http://ns.adobe.com/Variables/1.0/">
	<!ENTITY ns_imrep "http://ns.adobe.com/ImageReplacement/1.0/">
	<!ENTITY ns_sfw "http://ns.adobe.com/SaveForWeb/1.0/">
	<!ENTITY ns_custom "http://ns.adobe.com/GenericCustomNamespace/1.0/">
	<!ENTITY ns_adobe_xpath "http://ns.adobe.com/XPath/1.0/">
]>
<svg version="1.1" id="Layer_1" xmlns:x="&ns_extend;" xmlns:i="&ns_ai;" xmlns:graph="&ns_graphs;"
	 xmlns="http://www.w3.org/2000/svg" xmlns:xlink="http://www.w3.org/1999/xlink" x="0px" y="0px" width="75px" height="45px"
	 viewBox="20.861 -0.703 75 45" enable-background="new 20.861 -0.703 75 45" xml:space="preserve">
<metadata>
	<sfw  xmlns="&ns_sfw;">
		<slices></slices>
		<sliceSourceBounds  x="609" y="387.682" bottomLeftOrigin="true" height="23.231" width="61"></sliceSourceBounds>
	</sfw>
</metadata>
<g id="Layer_1_1_">
</g>
<g id="_x2014_ÎÓÈ_1">
	<g>
		<path fill="none" stroke="#00C3FF" stroke-miterlimit="10" d="M38.92,23.835c-2.837,0-5.14,2.301-5.14,5.141
			c0,2.842,2.303,5.14,5.14,5.14c2.838,0,5.141-2.298,5.141-5.14C44.06,26.136,41.758,23.835,38.92,23.835z"/>
		<path fill="none" stroke="#00C3FF" stroke-miterlimit="10" d="M77.607,24.083c-2.696,0-4.885,2.186-4.885,4.882
			c0,2.695,2.188,4.886,4.885,4.886c2.695,0,4.881-2.19,4.881-4.886C82.488,26.269,80.302,24.083,77.607,24.083z"/>
		<path fill="none" stroke="#00C3FF" stroke-miterlimit="10" d="M88.344,26.878c-0.088-1.003-0.749-0.657-0.92-1.429
			c-0.439-1.97-1.148-3.182-2.13-3.598c-3.347-1.288-6.476-1.946-14.023-3.327c-2.738-1.587-4.826-3.282-7.275-4.559
			c-2.316-1.205-2.732-1.38-5.364-1.679c-4.897-0.556-9.825-0.552-15.518,0.104c-3.113,0.46-5.532,1.669-10.671,4.861
			c-3.557,0.27-3.869,0.171-2.773,0.9c-0.285,1.486-0.735,3.764-0.798,6.387c-0.235,0.058,4.787,0.503,4.722,0.644
			c-0.064,0.135-5.065-0.397-5.089-0.237c-0.186,1.27-0.249,2.648,0.167,3.323c0.607,0.986,1.816,1.186,3.06,1.476
			c1.543,0.21,1.384,1.498,1.384-0.803c0-2.588,1.625-5.622,5.724-5.727s5.725,3.528,5.725,5.727c0,1.15-0.279,2.798,1.021,2.82
			c7.423-0.145,13.88-0.117,25.996,0.104c-0.14-0.972-0.008-0.432,0.166-2.936c0.173-2.505,1.818-5.76,5.766-5.726
			c3.024,0.027,4.838,1.78,5.493,3.816c0.038,0.12,4.806,0.392,4.836,0.515c0.019,0.07-4.756-0.229-4.74-0.157
			c0.09,0.438,0.188,1.113,0.179,1.552c-0.066,2.706-0.155,2.363-0.174,3.303c0.694-0.011,2.867-0.236,3.582-0.646
			C87.583,30.43,88.491,28.037,88.344,26.878z M40.916,18.707c-0.379-0.02-0.656-1.317-0.188-1.733
			c1.993-1.779,4.688-3.565,6.694-3.716c1.017-0.076,1.964-0.131,2.86-0.167c0.303,2.132,0.405,4.316,0.619,6.07
			C47.315,19.016,43.956,18.858,40.916,18.707z M52.514,19.225c-0.25-1.87-0.5-4.091-1.046-6.172
			c3.373-0.074,5.929,0.154,8.232,0.628c2.459,0.521,5.227,2.483,10.242,6.035C63.851,19.616,57.944,19.436,52.514,19.225z"/>
	</g>
</g>
</svg>
