<?xml version="1.0" encoding="utf-8"?>
<!-- Generator: Adobe Illustrator 16.0.4, SVG Export Plug-In . SVG Version: 6.00 Build 0)  -->
<!DOCTYPE svg PUBLIC "-//W3C//DTD SVG 1.1//EN" "http://www.w3.org/Graphics/SVG/1.1/DTD/svg11.dtd" [
	<!ENTITY ns_extend "http://ns.adobe.com/Extensibility/1.0/">
	<!ENTITY ns_ai "http://ns.adobe.com/AdobeIllustrator/10.0/">
	<!ENTITY ns_graphs "http://ns.adobe.com/Graphs/1.0/">
	<!ENTITY ns_vars "http://ns.adobe.com/Variables/1.0/">
	<!ENTITY ns_imrep "http://ns.adobe.com/ImageReplacement/1.0/">
	<!ENTITY ns_sfw "http://ns.adobe.com/SaveForWeb/1.0/">
	<!ENTITY ns_custom "http://ns.adobe.com/GenericCustomNamespace/1.0/">
	<!ENTITY ns_adobe_xpath "http://ns.adobe.com/XPath/1.0/">
]>
<svg version="1.1" id="Layer_1" xmlns:x="&ns_extend;" xmlns:i="&ns_ai;" xmlns:graph="&ns_graphs;"
	 xmlns="http://www.w3.org/2000/svg" xmlns:xlink="http://www.w3.org/1999/xlink" x="0px" y="0px" width="75px" height="45px"
	 viewBox="32.446 7.979 75 45" enable-background="new 32.446 7.979 75 45" xml:space="preserve">
<metadata>
	<sfw  xmlns="&ns_sfw;">
		<slices></slices>
		<sliceSourceBounds  x="609" y="386.928" bottomLeftOrigin="true" height="27.145" width="61"></sliceSourceBounds>
	</sfw>
</metadata>
<g id="Layer_1_1_">
</g>
<g id="_x2014_ÎÓÈ_1">
	<g>
		<path fill="none" stroke="#A5A5A5" stroke-miterlimit="10" d="M91.031,33.494c-2.776,0-5.028,2.252-5.028,5.028
			c0,2.777,2.252,5.028,5.028,5.028c2.777,0,5.028-2.251,5.028-5.028C96.06,35.746,93.809,33.494,91.031,33.494z M91.031,41.725
			c-1.769,0-3.203-1.435-3.203-3.203s1.435-3.203,3.203-3.203s3.204,1.435,3.204,3.203S92.8,41.725,91.031,41.725z"/>
		<path fill="none" stroke="#A5A5A5" stroke-miterlimit="10" d="M53.561,33.494c-2.777,0-5.028,2.252-5.028,5.028
			c0,2.777,2.251,5.028,5.028,5.028s5.028-2.251,5.028-5.028C58.589,35.746,56.337,33.494,53.561,33.494z M53.561,41.725
			c-1.769,0-3.204-1.435-3.204-3.203s1.435-3.203,3.204-3.203c1.769,0,3.203,1.435,3.203,3.203S55.33,41.725,53.561,41.725z"/>
		<path fill="none" stroke="#A5A5A5" stroke-miterlimit="10" d="M99.93,35.499c-0.024-0.772-0.73-1.074-0.781-1.434
			c-0.356-2.511-0.819-3.666-1.248-4.097c-1.961-2.701-7.144-6.532-9.777-9.145c-1.788-1.772-3.43-2.875-6.17-3.134
			c-5.015-0.475-35.348-0.194-37.696-0.253c-1.057-0.026-1.436,0.119-1.617,0.641c-0.791,2.273-1.251,6.264-1.714,8.518
			c-0.141,0.688-0.181,3.31-0.128,5.774c0.009,0.385-0.865,0.353-0.853,0.722c0.07,1.995-0.162,4.057,1.287,4.117
			c0.912,0.039,0.337,1.219,0.931,1.251c0.585,0.031,1.667,0.302,4.396,0.68c0.156,0.021,0.312,0.051,0.468,0.075
			c1.638,0.252,0.941-5.981,6.642-6.038c5.334-0.053,5.472,6.082,5.485,6.085c0.133,0.003,0.769,0.007,1.037,0.012
			c4.022,0.076,22.152,0.131,25.058,0.211c0.525-4.132,2.137-6.431,6.25-6.371c3.058,0.235,4.741,2.328,5.15,5.393
			c0.052,1.272,0.052,1.678,0.052,1.237c1.645,0.011,2.17-0.321,2.725-1.338C99.713,37.876,100.022,36.515,99.93,35.499z
			 M59.877,25.963H44.54c-0.421,0-0.823-0.441-0.768-0.859l0.701-5.286c0.055-0.418,0.346-0.718,0.768-0.718h14.583
			c0.422,0,0.764,0.249,0.768,0.672l0.052,5.379C60.649,25.574,60.299,25.963,59.877,25.963z M74.658,25.963H62.672
			c-0.422,0-0.764-0.437-0.768-0.859l-0.052-5.286c-0.004-0.422,0.346-0.718,0.768-0.718h11.987c0.423,0,0.764,0.249,0.768,0.672
			l0.053,5.379C75.431,25.574,75.081,25.963,74.658,25.963z M89.249,26.625c-2.999-0.184-5.831-0.225-10.665-0.75
			c-0.105-1.42-0.182-3.591-0.299-5.571c-0.062-1.077,0.162-1.044,1.185-1.022c1.433,0.03,2.091,0.121,2.962,0.219
			c2.931,0.33,3.818,1.173,5.71,3.176c0.495,0.526,1.048,1.196,1.417,1.662C89.835,24.689,89.637,26.648,89.249,26.625z"/>
	</g>
</g>
</svg>
