<?xml version="1.0" encoding="utf-8"?>
<!-- Generator: Adobe Illustrator 16.0.4, SVG Export Plug-In . SVG Version: 6.00 Build 0)  -->
<!DOCTYPE svg PUBLIC "-//W3C//DTD SVG 1.1//EN" "http://www.w3.org/Graphics/SVG/1.1/DTD/svg11.dtd" [
	<!ENTITY ns_extend "http://ns.adobe.com/Extensibility/1.0/">
	<!ENTITY ns_ai "http://ns.adobe.com/AdobeIllustrator/10.0/">
	<!ENTITY ns_graphs "http://ns.adobe.com/Graphs/1.0/">
	<!ENTITY ns_vars "http://ns.adobe.com/Variables/1.0/">
	<!ENTITY ns_imrep "http://ns.adobe.com/ImageReplacement/1.0/">
	<!ENTITY ns_sfw "http://ns.adobe.com/SaveForWeb/1.0/">
	<!ENTITY ns_custom "http://ns.adobe.com/GenericCustomNamespace/1.0/">
	<!ENTITY ns_adobe_xpath "http://ns.adobe.com/XPath/1.0/">
]>
<svg version="1.1" id="_x2014_ÎÓÈ_1" xmlns:x="&ns_extend;" xmlns:i="&ns_ai;" xmlns:graph="&ns_graphs;"
	 xmlns="http://www.w3.org/2000/svg" xmlns:xlink="http://www.w3.org/1999/xlink" x="0px" y="0px" width="75px" height="45px"
	 viewBox="35.035 0.664 75 45" enable-background="new 35.035 0.664 75 45" xml:space="preserve">
<metadata>
	<sfw  xmlns="&ns_sfw;">
		<slices></slices>
		<sliceSourceBounds  x="609" y="390.419" bottomLeftOrigin="true" height="20.162" width="61"></sliceSourceBounds>
	</sfw>
</metadata>
<g>
	<path fill="none" stroke="#A5A5A5" stroke-miterlimit="10" d="M56.158,23.564c-2.522,0-4.567,2.045-4.567,4.567
		c0,2.522,2.045,4.567,4.567,4.567c2.522,0,4.567-2.045,4.567-4.567C60.725,25.609,58.68,23.564,56.158,23.564z M56.158,31.515
		c-1.869,0-3.385-1.516-3.385-3.384c0-1.87,1.516-3.385,3.385-3.385c1.869,0,3.385,1.515,3.385,3.385
		C59.543,29.999,58.027,31.515,56.158,31.515z"/>
	<path fill="none" stroke="#A5A5A5" stroke-miterlimit="10" d="M92.344,23.61c-2.521,0-4.567,2.045-4.567,4.567
		c0,2.521,2.046,4.567,4.567,4.567c2.522,0,4.567-2.046,4.567-4.567C96.911,25.655,94.865,23.61,92.344,23.61z M92.344,31.562
		c-1.868,0-3.385-1.516-3.385-3.385s1.517-3.385,3.385-3.385c1.869,0,3.385,1.516,3.385,3.385
		C95.728,30.047,94.212,31.562,92.344,31.562z"/>
	<path fill="none" stroke="#A5A5A5" stroke-miterlimit="10" d="M102.518,27.445c-0.056-0.621-0.023-1.193-0.061-1.711
		c-0.15-2.034-0.567-3.269-1.499-3.665c-2.589-0.996-7.195-1.892-12.173-2.688c-0.67,0.21-0.734,0.153-1.165-0.17
		c-2.349-1.363-4.607-2.564-6.711-3.659c-1.989-1.035-3.399-1.439-5.661-1.696c-4.205-0.478-13.555-0.309-15.644,0.348
		c-1.526,0.295-4.568,2.064-8.612,4.139c-3.055,0.232-6.93,0.437-6.936,1.108c-0.245,1.275-0.434,2.622-0.488,4.875
		c-0.404,0.097-0.734,0.027-0.865,0.276c-0.219,0.418-0.216,1.292-0.033,2.537c0.183,1.249,0.071,1.343,1.251,1.725
		c1.173,0.378,3.181,0.508,5.175,0.974c1.326,0.182,2.094,0.298,2.094-1.683c0-2.22,1.394-4.825,4.915-4.915
		c3.521-0.09,4.915,3.03,4.915,4.915c0,0.99-0.238,2.404,0.877,2.426c6.374-0.125,14.873-0.101,25.276,0.087
		c-0.121-0.833-0.009-0.37,0.141-2.521s1.562-4.944,4.952-4.915c3.392,0.03,5.01,2.589,4.953,4.915
		c-0.059,2.325-0.011,2.03-0.027,2.84c0.596-0.014,3.524-0.204,4.139-0.556C102.1,29.437,102.643,28.44,102.518,27.445z
		 M59.087,19.282c-0.376-0.021-0.421-1.458-0.134-1.693c1.411-1.155,2.659-2.103,4.019-2.53c-0.173,1.285-0.374,2.72-0.592,4.311
		c0.075,0,0.148,0,0.244,0.011L63.168,15c0.319-0.087,0.644-0.146,0.98-0.172c2.219-0.167,4.398-0.249,6.369-0.233
		c0.279,1.895,0.5,3.617,0.693,5.166c0.395,0,0.848,0,1.388,0.058c-0.221-1.64-0.575-3.376-1.063-5.207
		c1.82,0.049,3.418,0.19,4.634,0.44c2.111,0.448,5.29,2.133,9.598,5.183C76.277,20.079,67.248,19.734,59.087,19.282z"/>
</g>
</svg>
